<svg xmlns="http://www.w3.org/2000/svg" viewBox="0 0 69 69" shape-rendering="crispEdges"><rect width="69" height="69" fill="#ffffff"/><path d="M2 2h7v1h-7zM11 2h1v1h-1zM13 2h2v1h-2zM16 2h3v1h-3zM20 2h1v1h-1zM22 2h1v1h-1zM24 2h4v1h-4zM30 2h1v1h-1zM32 2h2v1h-2zM35 2h4v1h-4zM40 2h2v1h-2zM44 2h1v1h-1zM46 2h1v1h-1zM48 2h2v1h-2zM52 2h1v1h-1zM54 2h1v1h-1zM57 2h1v1h-1zM60 2h7v1h-7zM2 3h1v1h-1zM8 3h1v1h-1zM10 3h2v1h-2zM13 3h2v1h-2zM16 3h3v1h-3zM22 3h2v1h-2zM27 3h3v1h-3zM33 3h1v1h-1zM37 3h2v1h-2zM41 3h1v1h-1zM44 3h2v1h-2zM48 3h2v1h-2zM51 3h3v1h-3zM58 3h1v1h-1zM60 3h1v1h-1zM66 3h1v1h-1zM2 4h1v1h-1zM4 4h3v1h-3zM8 4h1v1h-1zM10 4h1v1h-1zM14 4h5v1h-5zM20 4h2v1h-2zM25 4h1v1h-1zM28 4h1v1h-1zM32 4h1v1h-1zM35 4h2v1h-2zM38 4h1v1h-1zM41 4h2v1h-2zM46 4h1v1h-1zM50 4h1v1h-1zM53 4h1v1h-1zM56 4h1v1h-1zM58 4h1v1h-1zM60 4h1v1h-1zM62 4h3v1h-3zM66 4h1v1h-1zM2 5h1v1h-1zM4 5h3v1h-3zM8 5h1v1h-1zM10 5h6v1h-6zM17 5h1v1h-1zM24 5h1v1h-1zM26 5h2v1h-2zM30 5h1v1h-1zM33 5h1v1h-1zM37 5h3v1h-3zM41 5h6v1h-6zM49 5h2v1h-2zM53 5h5v1h-5zM60 5h1v1h-1zM62 5h3v1h-3zM66 5h1v1h-1zM2 6h1v1h-1zM4 6h3v1h-3zM8 6h1v1h-1zM12 6h3v1h-3zM18 6h5v1h-5zM24 6h1v1h-1zM29 6h1v1h-1zM32 6h6v1h-6zM43 6h2v1h-2zM49 6h1v1h-1zM51 6h1v1h-1zM53 6h2v1h-2zM58 6h1v1h-1zM60 6h1v1h-1zM62 6h3v1h-3zM66 6h1v1h-1zM2 7h1v1h-1zM8 7h1v1h-1zM14 7h2v1h-2zM18 7h1v1h-1zM21 7h1v1h-1zM25 7h1v1h-1zM28 7h2v1h-2zM31 7h2v1h-2zM36 7h1v1h-1zM40 7h2v1h-2zM44 7h2v1h-2zM55 7h2v1h-2zM60 7h1v1h-1zM66 7h1v1h-1zM2 8h7v1h-7zM10 8h1v1h-1zM12 8h1v1h-1zM14 8h1v1h-1zM16 8h1v1h-1zM18 8h1v1h-1zM20 8h1v1h-1zM22 8h1v1h-1zM24 8h1v1h-1zM26 8h1v1h-1zM28 8h1v1h-1zM30 8h1v1h-1zM32 8h1v1h-1zM34 8h1v1h-1zM36 8h1v1h-1zM38 8h1v1h-1zM40 8h1v1h-1zM42 8h1v1h-1zM44 8h1v1h-1zM46 8h1v1h-1zM48 8h1v1h-1zM50 8h1v1h-1zM52 8h1v1h-1zM54 8h1v1h-1zM56 8h1v1h-1zM58 8h1v1h-1zM60 8h7v1h-7zM10 9h1v1h-1zM12 9h2v1h-2zM17 9h1v1h-1zM19 9h1v1h-1zM21 9h1v1h-1zM23 9h2v1h-2zM27 9h1v1h-1zM29 9h4v1h-4zM36 9h2v1h-2zM39 9h2v1h-2zM42 9h1v1h-1zM45 9h4v1h-4zM51 9h3v1h-3zM58 9h1v1h-1zM2 10h1v1h-1zM8 10h1v1h-1zM10 10h4v1h-4zM16 10h3v1h-3zM20 10h2v1h-2zM29 10h1v1h-1zM32 10h7v1h-7zM40 10h1v1h-1zM45 10h1v1h-1zM49 10h4v1h-4zM55 10h1v1h-1zM58 10h3v1h-3zM63 10h3v1h-3zM4 11h1v1h-1zM6 11h2v1h-2zM12 11h1v1h-1zM15 11h1v1h-1zM20 11h2v1h-2zM23 11h2v1h-2zM26 11h2v1h-2zM29 11h4v1h-4zM35 11h7v1h-7zM43 11h2v1h-2zM46 11h1v1h-1zM48 11h1v1h-1zM51 11h2v1h-2zM55 11h4v1h-4zM60 11h1v1h-1zM62 11h3v1h-3zM2 12h2v1h-2zM5 12h1v1h-1zM7 12h3v1h-3zM12 12h3v1h-3zM16 12h1v1h-1zM19 12h1v1h-1zM22 12h4v1h-4zM27 12h1v1h-1zM32 12h4v1h-4zM37 12h4v1h-4zM42 12h1v1h-1zM44 12h1v1h-1zM47 12h1v1h-1zM52 12h3v1h-3zM56 12h3v1h-3zM60 12h1v1h-1zM62 12h1v1h-1zM5 13h3v1h-3zM9 13h1v1h-1zM13 13h1v1h-1zM15 13h2v1h-2zM18 13h1v1h-1zM21 13h1v1h-1zM26 13h1v1h-1zM28 13h2v1h-2zM31 13h2v1h-2zM34 13h1v1h-1zM38 13h1v1h-1zM40 13h3v1h-3zM44 13h3v1h-3zM49 13h1v1h-1zM51 13h7v1h-7zM59 13h1v1h-1zM61 13h3v1h-3zM66 13h1v1h-1zM3 14h1v1h-1zM5 14h4v1h-4zM11 14h1v1h-1zM16 14h1v1h-1zM18 14h2v1h-2zM22 14h1v1h-1zM26 14h1v1h-1zM28 14h1v1h-1zM30 14h3v1h-3zM34 14h3v1h-3zM38 14h1v1h-1zM40 14h3v1h-3zM45 14h10v1h-10zM62 14h1v1h-1zM64 14h1v1h-1zM66 14h1v1h-1zM3 15h4v1h-4zM10 15h1v1h-1zM15 15h6v1h-6zM24 15h1v1h-1zM26 15h1v1h-1zM28 15h2v1h-2zM32 15h2v1h-2zM35 15h1v1h-1zM37 15h3v1h-3zM43 15h3v1h-3zM47 15h1v1h-1zM49 15h3v1h-3zM56 15h1v1h-1zM59 15h1v1h-1zM62 15h1v1h-1zM65 15h2v1h-2zM3 16h3v1h-3zM8 16h3v1h-3zM14 16h1v1h-1zM16 16h2v1h-2zM20 16h2v1h-2zM23 16h1v1h-1zM27 16h1v1h-1zM29 16h3v1h-3zM33 16h1v1h-1zM35 16h1v1h-1zM37 16h2v1h-2zM40 16h4v1h-4zM47 16h1v1h-1zM50 16h3v1h-3zM54 16h2v1h-2zM57 16h1v1h-1zM59 16h1v1h-1zM61 16h2v1h-2zM64 16h2v1h-2zM2 17h1v1h-1zM5 17h1v1h-1zM13 17h1v1h-1zM15 17h1v1h-1zM17 17h8v1h-8zM31 17h2v1h-2zM40 17h2v1h-2zM43 17h1v1h-1zM47 17h1v1h-1zM52 17h1v1h-1zM54 17h1v1h-1zM56 17h6v1h-6zM64 17h1v1h-1zM66 17h1v1h-1zM3 18h2v1h-2zM8 18h2v1h-2zM12 18h5v1h-5zM18 18h1v1h-1zM21 18h1v1h-1zM23 18h1v1h-1zM25 18h3v1h-3zM29 18h1v1h-1zM31 18h1v1h-1zM33 18h1v1h-1zM35 18h4v1h-4zM43 18h1v1h-1zM45 18h1v1h-1zM49 18h3v1h-3zM56 18h1v1h-1zM58 18h1v1h-1zM61 18h4v1h-4zM66 18h1v1h-1zM5 19h3v1h-3zM10 19h1v1h-1zM13 19h2v1h-2zM16 19h2v1h-2zM20 19h3v1h-3zM24 19h2v1h-2zM28 19h2v1h-2zM31 19h1v1h-1zM34 19h2v1h-2zM37 19h3v1h-3zM41 19h5v1h-5zM47 19h1v1h-1zM49 19h1v1h-1zM51 19h1v1h-1zM55 19h3v1h-3zM59 19h1v1h-1zM64 19h1v1h-1zM66 19h1v1h-1zM5 20h4v1h-4zM14 20h1v1h-1zM16 20h1v1h-1zM20 20h1v1h-1zM22 20h1v1h-1zM25 20h1v1h-1zM28 20h2v1h-2zM31 20h2v1h-2zM36 20h2v1h-2zM39 20h1v1h-1zM41 20h3v1h-3zM45 20h1v1h-1zM47 20h1v1h-1zM53 20h4v1h-4zM59 20h1v1h-1zM61 20h4v1h-4zM66 20h1v1h-1zM2 21h5v1h-5zM11 21h1v1h-1zM14 21h2v1h-2zM21 21h1v1h-1zM23 21h3v1h-3zM30 21h1v1h-1zM32 21h1v1h-1zM38 21h2v1h-2zM42 21h1v1h-1zM44 21h4v1h-4zM52 21h1v1h-1zM54 21h1v1h-1zM56 21h1v1h-1zM60 21h4v1h-4zM65 21h1v1h-1zM2 22h3v1h-3zM6 22h1v1h-1zM8 22h8v1h-8zM18 22h1v1h-1zM20 22h3v1h-3zM27 22h1v1h-1zM29 22h1v1h-1zM31 22h1v1h-1zM33 22h1v1h-1zM38 22h3v1h-3zM44 22h2v1h-2zM48 22h1v1h-1zM50 22h1v1h-1zM52 22h1v1h-1zM55 22h1v1h-1zM59 22h4v1h-4zM2 23h1v1h-1zM5 23h2v1h-2zM9 23h1v1h-1zM11 23h1v1h-1zM17 23h2v1h-2zM20 23h2v1h-2zM23 23h3v1h-3zM28 23h3v1h-3zM32 23h7v1h-7zM40 23h1v1h-1zM42 23h1v1h-1zM44 23h1v1h-1zM48 23h3v1h-3zM52 23h1v1h-1zM55 23h9v1h-9zM65 23h1v1h-1zM4 24h1v1h-1zM8 24h1v1h-1zM10 24h2v1h-2zM14 24h1v1h-1zM18 24h3v1h-3zM22 24h2v1h-2zM25 24h1v1h-1zM29 24h1v1h-1zM31 24h1v1h-1zM34 24h4v1h-4zM43 24h1v1h-1zM45 24h2v1h-2zM48 24h1v1h-1zM52 24h1v1h-1zM56 24h2v1h-2zM59 24h1v1h-1zM63 24h1v1h-1zM3 25h1v1h-1zM5 25h1v1h-1zM10 25h5v1h-5zM17 25h1v1h-1zM20 25h1v1h-1zM25 25h2v1h-2zM31 25h6v1h-6zM39 25h1v1h-1zM42 25h1v1h-1zM44 25h3v1h-3zM48 25h1v1h-1zM50 25h2v1h-2zM54 25h2v1h-2zM57 25h2v1h-2zM61 25h1v1h-1zM63 25h1v1h-1zM65 25h1v1h-1zM3 26h3v1h-3zM7 26h8v1h-8zM17 26h7v1h-7zM25 26h2v1h-2zM28 26h1v1h-1zM31 26h1v1h-1zM34 26h1v1h-1zM36 26h3v1h-3zM40 26h1v1h-1zM42 26h1v1h-1zM45 26h6v1h-6zM52 26h1v1h-1zM54 26h1v1h-1zM57 26h1v1h-1zM59 26h1v1h-1zM62 26h2v1h-2zM66 26h1v1h-1zM2 27h1v1h-1zM5 27h1v1h-1zM7 27h1v1h-1zM13 27h2v1h-2zM19 27h1v1h-1zM22 27h1v1h-1zM24 27h1v1h-1zM26 27h1v1h-1zM28 27h2v1h-2zM31 27h1v1h-1zM33 27h1v1h-1zM35 27h1v1h-1zM38 27h2v1h-2zM41 27h1v1h-1zM44 27h1v1h-1zM46 27h2v1h-2zM49 27h1v1h-1zM51 27h1v1h-1zM54 27h3v1h-3zM61 27h2v1h-2zM66 27h1v1h-1zM5 28h4v1h-4zM11 28h1v1h-1zM13 28h1v1h-1zM15 28h1v1h-1zM17 28h1v1h-1zM19 28h2v1h-2zM23 28h1v1h-1zM25 28h1v1h-1zM28 28h3v1h-3zM34 28h2v1h-2zM37 28h1v1h-1zM40 28h2v1h-2zM43 28h1v1h-1zM45 28h2v1h-2zM48 28h1v1h-1zM51 28h1v1h-1zM53 28h1v1h-1zM58 28h5v1h-5zM64 28h1v1h-1zM2 29h1v1h-1zM5 29h1v1h-1zM7 29h1v1h-1zM9 29h1v1h-1zM11 29h2v1h-2zM15 29h1v1h-1zM17 29h1v1h-1zM20 29h2v1h-2zM23 29h1v1h-1zM25 29h2v1h-2zM30 29h5v1h-5zM36 29h1v1h-1zM38 29h4v1h-4zM43 29h2v1h-2zM46 29h1v1h-1zM49 29h2v1h-2zM53 29h3v1h-3zM57 29h2v1h-2zM60 29h1v1h-1zM62 29h5v1h-5zM7 30h5v1h-5zM14 30h3v1h-3zM20 30h1v1h-1zM22 30h2v1h-2zM26 30h2v1h-2zM33 30h1v1h-1zM35 30h2v1h-2zM38 30h4v1h-4zM43 30h3v1h-3zM48 30h5v1h-5zM55 30h2v1h-2zM59 30h1v1h-1zM62 30h3v1h-3zM2 31h2v1h-2zM7 31h1v1h-1zM9 31h2v1h-2zM13 31h1v1h-1zM15 31h1v1h-1zM19 31h1v1h-1zM21 31h2v1h-2zM25 31h2v1h-2zM32 31h2v1h-2zM35 31h1v1h-1zM37 31h2v1h-2zM42 31h6v1h-6zM53 31h1v1h-1zM55 31h3v1h-3zM59 31h1v1h-1zM61 31h5v1h-5zM2 32h1v1h-1zM5 32h7v1h-7zM14 32h1v1h-1zM20 32h1v1h-1zM22 32h2v1h-2zM30 32h7v1h-7zM39 32h1v1h-1zM41 32h1v1h-1zM43 32h1v1h-1zM45 32h3v1h-3zM49 32h1v1h-1zM53 32h2v1h-2zM56 32h8v1h-8zM65 32h2v1h-2zM2 33h2v1h-2zM6 33h1v1h-1zM10 33h2v1h-2zM18 33h2v1h-2zM25 33h2v1h-2zM28 33h1v1h-1zM31 33h2v1h-2zM36 33h1v1h-1zM38 33h1v1h-1zM41 33h1v1h-1zM43 33h1v1h-1zM47 33h1v1h-1zM54 33h1v1h-1zM57 33h2v1h-2zM62 33h2v1h-2zM65 33h1v1h-1zM3 34h4v1h-4zM8 34h1v1h-1zM10 34h2v1h-2zM14 34h3v1h-3zM18 34h5v1h-5zM25 34h1v1h-1zM29 34h2v1h-2zM32 34h1v1h-1zM34 34h1v1h-1zM36 34h5v1h-5zM45 34h1v1h-1zM47 34h1v1h-1zM49 34h2v1h-2zM52 34h1v1h-1zM55 34h2v1h-2zM58 34h1v1h-1zM60 34h1v1h-1zM62 34h1v1h-1zM64 34h2v1h-2zM3 35h2v1h-2zM6 35h1v1h-1zM10 35h1v1h-1zM14 35h1v1h-1zM16 35h1v1h-1zM18 35h4v1h-4zM23 35h5v1h-5zM29 35h2v1h-2zM32 35h1v1h-1zM36 35h1v1h-1zM39 35h2v1h-2zM43 35h2v1h-2zM48 35h5v1h-5zM55 35h2v1h-2zM58 35h1v1h-1zM62 35h1v1h-1zM65 35h1v1h-1zM2 36h3v1h-3zM6 36h5v1h-5zM13 36h3v1h-3zM18 36h2v1h-2zM22 36h1v1h-1zM25 36h2v1h-2zM29 36h1v1h-1zM32 36h5v1h-5zM38 36h1v1h-1zM41 36h2v1h-2zM44 36h1v1h-1zM46 36h2v1h-2zM50 36h1v1h-1zM52 36h4v1h-4zM57 36h9v1h-9zM3 37h2v1h-2zM10 37h1v1h-1zM12 37h1v1h-1zM14 37h2v1h-2zM17 37h1v1h-1zM20 37h1v1h-1zM22 37h2v1h-2zM26 37h2v1h-2zM30 37h2v1h-2zM34 37h4v1h-4zM39 37h2v1h-2zM42 37h2v1h-2zM45 37h3v1h-3zM49 37h1v1h-1zM51 37h1v1h-1zM53 37h1v1h-1zM55 37h3v1h-3zM61 37h1v1h-1zM63 37h1v1h-1zM65 37h2v1h-2zM2 38h1v1h-1zM5 38h1v1h-1zM8 38h1v1h-1zM11 38h3v1h-3zM16 38h1v1h-1zM21 38h11v1h-11zM36 38h4v1h-4zM42 38h1v1h-1zM46 38h1v1h-1zM48 38h5v1h-5zM54 38h2v1h-2zM57 38h3v1h-3zM64 38h2v1h-2zM2 39h3v1h-3zM6 39h2v1h-2zM10 39h4v1h-4zM16 39h1v1h-1zM21 39h1v1h-1zM23 39h3v1h-3zM27 39h1v1h-1zM32 39h2v1h-2zM35 39h2v1h-2zM38 39h1v1h-1zM41 39h4v1h-4zM47 39h1v1h-1zM49 39h1v1h-1zM53 39h4v1h-4zM58 39h2v1h-2zM61 39h4v1h-4zM2 40h2v1h-2zM5 40h1v1h-1zM8 40h1v1h-1zM10 40h2v1h-2zM13 40h3v1h-3zM24 40h3v1h-3zM28 40h1v1h-1zM31 40h1v1h-1zM33 40h1v1h-1zM37 40h4v1h-4zM44 40h3v1h-3zM54 40h1v1h-1zM56 40h4v1h-4zM2 41h1v1h-1zM4 41h3v1h-3zM10 41h4v1h-4zM16 41h5v1h-5zM22 41h2v1h-2zM25 41h1v1h-1zM27 41h1v1h-1zM29 41h1v1h-1zM31 41h1v1h-1zM34 41h2v1h-2zM37 41h1v1h-1zM39 41h2v1h-2zM43 41h3v1h-3zM49 41h1v1h-1zM51 41h1v1h-1zM54 41h1v1h-1zM56 41h3v1h-3zM61 41h1v1h-1zM63 41h4v1h-4zM5 42h2v1h-2zM8 42h1v1h-1zM10 42h3v1h-3zM14 42h4v1h-4zM19 42h1v1h-1zM21 42h1v1h-1zM25 42h2v1h-2zM29 42h3v1h-3zM36 42h4v1h-4zM41 42h1v1h-1zM43 42h3v1h-3zM47 42h2v1h-2zM50 42h1v1h-1zM52 42h2v1h-2zM55 42h2v1h-2zM59 42h2v1h-2zM62 42h4v1h-4zM2 43h4v1h-4zM11 43h2v1h-2zM15 43h1v1h-1zM20 43h1v1h-1zM22 43h4v1h-4zM27 43h3v1h-3zM33 43h1v1h-1zM35 43h1v1h-1zM38 43h2v1h-2zM41 43h4v1h-4zM47 43h1v1h-1zM50 43h1v1h-1zM53 43h1v1h-1zM55 43h5v1h-5zM61 43h2v1h-2zM66 43h1v1h-1zM2 44h4v1h-4zM7 44h2v1h-2zM11 44h1v1h-1zM13 44h4v1h-4zM18 44h4v1h-4zM24 44h3v1h-3zM30 44h1v1h-1zM33 44h1v1h-1zM35 44h2v1h-2zM39 44h1v1h-1zM43 44h1v1h-1zM46 44h3v1h-3zM55 44h1v1h-1zM60 44h1v1h-1zM62 44h2v1h-2zM66 44h1v1h-1zM2 45h1v1h-1zM5 45h2v1h-2zM13 45h1v1h-1zM15 45h1v1h-1zM17 45h2v1h-2zM20 45h2v1h-2zM23 45h2v1h-2zM26 45h1v1h-1zM28 45h5v1h-5zM34 45h1v1h-1zM38 45h9v1h-9zM49 45h1v1h-1zM51 45h1v1h-1zM57 45h3v1h-3zM61 45h2v1h-2zM65 45h1v1h-1zM4 46h1v1h-1zM6 46h1v1h-1zM8 46h2v1h-2zM11 46h3v1h-3zM16 46h1v1h-1zM19 46h1v1h-1zM21 46h1v1h-1zM24 46h6v1h-6zM36 46h3v1h-3zM40 46h2v1h-2zM43 46h2v1h-2zM48 46h1v1h-1zM50 46h2v1h-2zM58 46h4v1h-4zM63 46h2v1h-2zM2 47h1v1h-1zM5 47h2v1h-2zM9 47h1v1h-1zM12 47h1v1h-1zM14 47h2v1h-2zM17 47h1v1h-1zM24 47h2v1h-2zM28 47h1v1h-1zM30 47h1v1h-1zM32 47h1v1h-1zM34 47h1v1h-1zM39 47h3v1h-3zM43 47h6v1h-6zM50 47h3v1h-3zM54 47h6v1h-6zM62 47h3v1h-3zM66 47h1v1h-1zM3 48h1v1h-1zM7 48h2v1h-2zM11 48h1v1h-1zM14 48h1v1h-1zM18 48h3v1h-3zM22 48h1v1h-1zM34 48h2v1h-2zM40 48h1v1h-1zM46 48h7v1h-7zM54 48h1v1h-1zM62 48h2v1h-2zM2 49h2v1h-2zM6 49h1v1h-1zM10 49h2v1h-2zM13 49h2v1h-2zM16 49h2v1h-2zM21 49h3v1h-3zM25 49h2v1h-2zM28 49h3v1h-3zM32 49h1v1h-1zM34 49h3v1h-3zM39 49h1v1h-1zM41 49h1v1h-1zM43 49h1v1h-1zM46 49h1v1h-1zM51 49h1v1h-1zM54 49h1v1h-1zM56 49h1v1h-1zM58 49h2v1h-2zM61 49h2v1h-2zM65 49h1v1h-1zM3 50h1v1h-1zM5 50h1v1h-1zM8 50h3v1h-3zM12 50h1v1h-1zM15 50h2v1h-2zM20 50h1v1h-1zM23 50h2v1h-2zM26 50h3v1h-3zM31 50h1v1h-1zM33 50h1v1h-1zM35 50h2v1h-2zM38 50h1v1h-1zM40 50h1v1h-1zM42 50h2v1h-2zM46 50h1v1h-1zM48 50h1v1h-1zM50 50h1v1h-1zM52 50h3v1h-3zM56 50h4v1h-4zM62 50h1v1h-1zM66 50h1v1h-1zM3 51h1v1h-1zM5 51h2v1h-2zM9 51h1v1h-1zM11 51h4v1h-4zM21 51h2v1h-2zM25 51h4v1h-4zM32 51h2v1h-2zM35 51h1v1h-1zM37 51h1v1h-1zM39 51h1v1h-1zM44 51h1v1h-1zM47 51h1v1h-1zM50 51h2v1h-2zM53 51h1v1h-1zM55 51h2v1h-2zM59 51h1v1h-1zM61 51h2v1h-2zM65 51h2v1h-2zM2 52h1v1h-1zM7 52h2v1h-2zM11 52h2v1h-2zM14 52h2v1h-2zM17 52h2v1h-2zM20 52h3v1h-3zM25 52h2v1h-2zM28 52h1v1h-1zM32 52h1v1h-1zM34 52h1v1h-1zM38 52h1v1h-1zM40 52h2v1h-2zM45 52h1v1h-1zM48 52h7v1h-7zM56 52h1v1h-1zM61 52h1v1h-1zM64 52h1v1h-1zM2 53h1v1h-1zM4 53h1v1h-1zM7 53h1v1h-1zM13 53h2v1h-2zM17 53h1v1h-1zM20 53h4v1h-4zM25 53h1v1h-1zM27 53h6v1h-6zM34 53h1v1h-1zM38 53h2v1h-2zM41 53h1v1h-1zM43 53h2v1h-2zM49 53h1v1h-1zM54 53h4v1h-4zM60 53h1v1h-1zM63 53h3v1h-3zM2 54h1v1h-1zM4 54h1v1h-1zM6 54h1v1h-1zM8 54h3v1h-3zM12 54h1v1h-1zM17 54h1v1h-1zM19 54h3v1h-3zM24 54h1v1h-1zM27 54h1v1h-1zM29 54h4v1h-4zM34 54h1v1h-1zM38 54h2v1h-2zM43 54h1v1h-1zM45 54h1v1h-1zM49 54h4v1h-4zM55 54h2v1h-2zM61 54h1v1h-1zM66 54h1v1h-1zM3 55h1v1h-1zM5 55h2v1h-2zM9 55h1v1h-1zM11 55h2v1h-2zM14 55h1v1h-1zM16 55h2v1h-2zM20 55h1v1h-1zM26 55h1v1h-1zM28 55h1v1h-1zM32 55h1v1h-1zM37 55h1v1h-1zM44 55h3v1h-3zM53 55h1v1h-1zM55 55h5v1h-5zM61 55h2v1h-2zM65 55h2v1h-2zM4 56h2v1h-2zM7 56h3v1h-3zM14 56h1v1h-1zM17 56h1v1h-1zM19 56h4v1h-4zM24 56h1v1h-1zM26 56h1v1h-1zM29 56h1v1h-1zM34 56h1v1h-1zM36 56h1v1h-1zM38 56h3v1h-3zM49 56h2v1h-2zM54 56h3v1h-3zM60 56h1v1h-1zM62 56h1v1h-1zM64 56h1v1h-1zM66 56h1v1h-1zM2 57h1v1h-1zM5 57h1v1h-1zM9 57h3v1h-3zM13 57h3v1h-3zM17 57h1v1h-1zM19 57h1v1h-1zM22 57h1v1h-1zM26 57h1v1h-1zM28 57h5v1h-5zM34 57h1v1h-1zM39 57h1v1h-1zM42 57h1v1h-1zM47 57h1v1h-1zM49 57h1v1h-1zM53 57h3v1h-3zM57 57h1v1h-1zM60 57h4v1h-4zM3 58h2v1h-2zM6 58h1v1h-1zM8 58h2v1h-2zM11 58h2v1h-2zM14 58h3v1h-3zM18 58h2v1h-2zM21 58h4v1h-4zM30 58h9v1h-9zM40 58h1v1h-1zM45 58h1v1h-1zM47 58h1v1h-1zM50 58h1v1h-1zM52 58h1v1h-1zM55 58h2v1h-2zM58 58h5v1h-5zM64 58h1v1h-1zM66 58h1v1h-1zM10 59h1v1h-1zM12 59h4v1h-4zM17 59h1v1h-1zM23 59h5v1h-5zM29 59h4v1h-4zM36 59h7v1h-7zM44 59h1v1h-1zM47 59h3v1h-3zM51 59h4v1h-4zM56 59h3v1h-3zM62 59h1v1h-1zM66 59h1v1h-1zM2 60h7v1h-7zM13 60h1v1h-1zM18 60h1v1h-1zM21 60h1v1h-1zM23 60h3v1h-3zM28 60h1v1h-1zM31 60h2v1h-2zM34 60h1v1h-1zM36 60h3v1h-3zM40 60h1v1h-1zM42 60h1v1h-1zM45 60h1v1h-1zM48 60h1v1h-1zM53 60h1v1h-1zM56 60h1v1h-1zM58 60h1v1h-1zM60 60h1v1h-1zM62 60h2v1h-2zM2 61h1v1h-1zM8 61h1v1h-1zM11 61h3v1h-3zM16 61h1v1h-1zM19 61h1v1h-1zM22 61h1v1h-1zM24 61h1v1h-1zM26 61h4v1h-4zM32 61h1v1h-1zM36 61h1v1h-1zM38 61h1v1h-1zM41 61h3v1h-3zM45 61h1v1h-1zM47 61h1v1h-1zM50 61h1v1h-1zM52 61h1v1h-1zM55 61h4v1h-4zM62 61h1v1h-1zM65 61h2v1h-2zM2 62h1v1h-1zM4 62h3v1h-3zM8 62h1v1h-1zM12 62h1v1h-1zM15 62h2v1h-2zM18 62h2v1h-2zM22 62h1v1h-1zM25 62h1v1h-1zM27 62h4v1h-4zM32 62h12v1h-12zM46 62h1v1h-1zM48 62h4v1h-4zM54 62h1v1h-1zM57 62h9v1h-9zM2 63h1v1h-1zM4 63h3v1h-3zM8 63h1v1h-1zM14 63h1v1h-1zM17 63h1v1h-1zM19 63h2v1h-2zM22 63h5v1h-5zM29 63h2v1h-2zM35 63h2v1h-2zM38 63h1v1h-1zM42 63h3v1h-3zM46 63h2v1h-2zM49 63h2v1h-2zM53 63h4v1h-4zM58 63h6v1h-6zM2 64h1v1h-1zM4 64h3v1h-3zM8 64h1v1h-1zM12 64h2v1h-2zM16 64h1v1h-1zM19 64h5v1h-5zM27 64h4v1h-4zM32 64h2v1h-2zM35 64h1v1h-1zM38 64h3v1h-3zM42 64h2v1h-2zM47 64h3v1h-3zM51 64h3v1h-3zM56 64h1v1h-1zM60 64h3v1h-3zM65 64h1v1h-1zM2 65h1v1h-1zM8 65h1v1h-1zM11 65h1v1h-1zM14 65h1v1h-1zM17 65h2v1h-2zM22 65h6v1h-6zM29 65h1v1h-1zM31 65h1v1h-1zM33 65h6v1h-6zM40 65h2v1h-2zM43 65h2v1h-2zM46 65h2v1h-2zM51 65h1v1h-1zM53 65h1v1h-1zM55 65h2v1h-2zM58 65h3v1h-3zM62 65h3v1h-3zM66 65h1v1h-1zM2 66h7v1h-7zM10 66h1v1h-1zM13 66h2v1h-2zM18 66h1v1h-1zM22 66h1v1h-1zM24 66h1v1h-1zM27 66h6v1h-6zM35 66h5v1h-5zM41 66h1v1h-1zM44 66h1v1h-1zM49 66h2v1h-2zM56 66h1v1h-1zM61 66h2v1h-2zM64 66h1v1h-1z" fill="#0f2a46"/></svg>