<svg xmlns="http://www.w3.org/2000/svg" viewBox="0 0 37 37" shape-rendering="crispEdges"><rect width="37" height="37" fill="#ffffff"/><path d="M2 2h7v1h-7zM10 2h2v1h-2zM14 2h2v1h-2zM18 2h2v1h-2zM21 2h5v1h-5zM28 2h7v1h-7zM2 3h1v1h-1zM8 3h1v1h-1zM10 3h3v1h-3zM15 3h1v1h-1zM18 3h1v1h-1zM20 3h1v1h-1zM23 3h1v1h-1zM25 3h1v1h-1zM28 3h1v1h-1zM34 3h1v1h-1zM2 4h1v1h-1zM4 4h3v1h-3zM8 4h1v1h-1zM11 4h1v1h-1zM17 4h1v1h-1zM19 4h1v1h-1zM22 4h1v1h-1zM25 4h1v1h-1zM28 4h1v1h-1zM30 4h3v1h-3zM34 4h1v1h-1zM2 5h1v1h-1zM4 5h3v1h-3zM8 5h1v1h-1zM10 5h2v1h-2zM16 5h1v1h-1zM18 5h1v1h-1zM21 5h2v1h-2zM24 5h1v1h-1zM26 5h1v1h-1zM28 5h1v1h-1zM30 5h3v1h-3zM34 5h1v1h-1zM2 6h1v1h-1zM4 6h3v1h-3zM8 6h1v1h-1zM11 6h1v1h-1zM14 6h1v1h-1zM16 6h1v1h-1zM19 6h1v1h-1zM22 6h2v1h-2zM26 6h1v1h-1zM28 6h1v1h-1zM30 6h3v1h-3zM34 6h1v1h-1zM2 7h1v1h-1zM8 7h1v1h-1zM13 7h4v1h-4zM19 7h4v1h-4zM24 7h1v1h-1zM28 7h1v1h-1zM34 7h1v1h-1zM2 8h7v1h-7zM10 8h1v1h-1zM12 8h1v1h-1zM14 8h1v1h-1zM16 8h1v1h-1zM18 8h1v1h-1zM20 8h1v1h-1zM22 8h1v1h-1zM24 8h1v1h-1zM26 8h1v1h-1zM28 8h7v1h-7zM10 9h1v1h-1zM13 9h2v1h-2zM19 9h2v1h-2zM22 9h1v1h-1zM24 9h1v1h-1zM26 9h1v1h-1zM2 10h1v1h-1zM4 10h2v1h-2zM7 10h3v1h-3zM12 10h1v1h-1zM14 10h1v1h-1zM16 10h1v1h-1zM18 10h4v1h-4zM23 10h2v1h-2zM26 10h1v1h-1zM28 10h1v1h-1zM31 10h1v1h-1zM33 10h2v1h-2zM6 11h2v1h-2zM9 11h5v1h-5zM20 11h4v1h-4zM25 11h1v1h-1zM28 11h2v1h-2zM31 11h4v1h-4zM3 12h2v1h-2zM8 12h3v1h-3zM14 12h1v1h-1zM16 12h1v1h-1zM18 12h2v1h-2zM22 12h6v1h-6zM29 12h3v1h-3zM33 12h2v1h-2zM2 13h1v1h-1zM5 13h1v1h-1zM7 13h1v1h-1zM9 13h1v1h-1zM11 13h1v1h-1zM13 13h1v1h-1zM15 13h4v1h-4zM20 13h3v1h-3zM24 13h1v1h-1zM26 13h2v1h-2zM29 13h1v1h-1zM31 13h1v1h-1zM33 13h2v1h-2zM6 14h1v1h-1zM8 14h1v1h-1zM10 14h2v1h-2zM17 14h1v1h-1zM20 14h1v1h-1zM23 14h1v1h-1zM27 14h1v1h-1zM29 14h3v1h-3zM33 14h2v1h-2zM3 15h2v1h-2zM10 15h2v1h-2zM13 15h1v1h-1zM18 15h1v1h-1zM20 15h1v1h-1zM23 15h1v1h-1zM26 15h2v1h-2zM29 15h1v1h-1zM33 15h1v1h-1zM2 16h1v1h-1zM5 16h2v1h-2zM8 16h4v1h-4zM14 16h2v1h-2zM17 16h4v1h-4zM23 16h1v1h-1zM28 16h1v1h-1zM31 16h1v1h-1zM4 17h1v1h-1zM6 17h1v1h-1zM9 17h4v1h-4zM18 17h1v1h-1zM20 17h4v1h-4zM25 17h1v1h-1zM27 17h2v1h-2zM31 17h2v1h-2zM2 18h1v1h-1zM4 18h8v1h-8zM15 18h1v1h-1zM17 18h2v1h-2zM20 18h5v1h-5zM26 18h3v1h-3zM30 18h3v1h-3zM4 19h1v1h-1zM7 19h1v1h-1zM9 19h1v1h-1zM11 19h2v1h-2zM15 19h1v1h-1zM17 19h1v1h-1zM19 19h1v1h-1zM22 19h7v1h-7zM30 19h2v1h-2zM33 19h2v1h-2zM2 20h1v1h-1zM4 20h3v1h-3zM8 20h1v1h-1zM10 20h5v1h-5zM17 20h1v1h-1zM19 20h1v1h-1zM22 20h1v1h-1zM24 20h1v1h-1zM26 20h2v1h-2zM29 20h2v1h-2zM32 20h2v1h-2zM2 21h1v1h-1zM4 21h1v1h-1zM6 21h2v1h-2zM9 21h3v1h-3zM13 21h2v1h-2zM18 21h1v1h-1zM21 21h1v1h-1zM23 21h1v1h-1zM25 21h4v1h-4zM30 21h1v1h-1zM33 21h2v1h-2zM4 22h1v1h-1zM8 22h3v1h-3zM16 22h1v1h-1zM20 22h1v1h-1zM22 22h1v1h-1zM25 22h1v1h-1zM31 22h3v1h-3zM2 23h2v1h-2zM5 23h2v1h-2zM11 23h2v1h-2zM17 23h1v1h-1zM19 23h2v1h-2zM23 23h1v1h-1zM25 23h4v1h-4zM31 23h2v1h-2zM34 23h1v1h-1zM4 24h1v1h-1zM7 24h3v1h-3zM12 24h1v1h-1zM14 24h1v1h-1zM18 24h3v1h-3zM23 24h1v1h-1zM25 24h5v1h-5zM33 24h2v1h-2zM3 25h1v1h-1zM5 25h2v1h-2zM9 25h2v1h-2zM13 25h1v1h-1zM15 25h1v1h-1zM18 25h1v1h-1zM21 25h1v1h-1zM29 25h1v1h-1zM31 25h1v1h-1zM33 25h2v1h-2zM2 26h1v1h-1zM4 26h3v1h-3zM8 26h3v1h-3zM12 26h1v1h-1zM14 26h1v1h-1zM16 26h2v1h-2zM19 26h1v1h-1zM24 26h7v1h-7zM33 26h2v1h-2zM10 27h1v1h-1zM12 27h2v1h-2zM16 27h4v1h-4zM21 27h2v1h-2zM25 27h2v1h-2zM30 27h2v1h-2zM2 28h7v1h-7zM10 28h1v1h-1zM13 28h1v1h-1zM15 28h2v1h-2zM21 28h2v1h-2zM24 28h3v1h-3zM28 28h1v1h-1zM30 28h1v1h-1zM2 29h1v1h-1zM8 29h1v1h-1zM10 29h1v1h-1zM12 29h1v1h-1zM15 29h3v1h-3zM22 29h5v1h-5zM30 29h4v1h-4zM2 30h1v1h-1zM4 30h3v1h-3zM8 30h1v1h-1zM11 30h2v1h-2zM16 30h1v1h-1zM19 30h1v1h-1zM21 30h2v1h-2zM25 30h6v1h-6zM32 30h2v1h-2zM2 31h1v1h-1zM4 31h3v1h-3zM8 31h1v1h-1zM10 31h2v1h-2zM13 31h4v1h-4zM19 31h5v1h-5zM26 31h1v1h-1zM29 31h1v1h-1zM31 31h4v1h-4zM2 32h1v1h-1zM4 32h3v1h-3zM8 32h1v1h-1zM10 32h2v1h-2zM15 32h2v1h-2zM19 32h1v1h-1zM21 32h1v1h-1zM24 32h3v1h-3zM28 32h2v1h-2zM32 32h1v1h-1zM2 33h1v1h-1zM8 33h1v1h-1zM11 33h1v1h-1zM13 33h1v1h-1zM15 33h1v1h-1zM17 33h5v1h-5zM24 33h1v1h-1zM26 33h1v1h-1zM28 33h4v1h-4zM34 33h1v1h-1zM2 34h7v1h-7zM10 34h1v1h-1zM12 34h2v1h-2zM16 34h5v1h-5zM23 34h1v1h-1zM25 34h1v1h-1zM27 34h2v1h-2zM30 34h1v1h-1zM32 34h1v1h-1z" fill="#0f2a46"/></svg>